<svg width="64" height="64" viewBox="0 0 64 64" xmlns="http://www.w3.org/2000/svg">
  <rect width="64" height="64" rx="16" fill="#0F172A"/>
  <circle cx="32" cy="32" r="16" fill="#181717"/>
  <path d="M28.5 41c-2-1-4-2-4-5 0-1.8 1-3.5 2.5-4.5-.1-.8-.4-1.9.1-2.5 0 0 .8-.3 2.5 1 1.5-.4 3.2-.4 4.7 0 1.7-1.3 2.5-1 2.5-1 .5.6.2 1.7.1 2.5 1.6 1 2.5 2.7 2.5 4.5 0 3-2 4-4 5-1.5.7-1.8.9-1.8 1.5v2.2c0 .5.2 1.2.6 1.5.2.1.3.2.5.1 2-1.4 4.2-4.3 4.2-9.2 0-4.5-2.3-7.8-6.2-9-.2-.4-.9-1.8-1.1-2.2-.4-.9-.9-1.9-1.4-2.8-.4 1-1.3 2.6-1.5 3-.2.4-.8 1.1-1.4 1.7-3 2.8-4.6 6.1-4.6 9.6 0 4.8 2.2 7.8 4.2 9.2.2.1.3 0 .5-.1.4-.3.6-1 .6-1.5v-2.2c0-.6-.3-.8-1.8-1.5Z" fill="#fff"/>
</svg>