<svg width="64" height="64" viewBox="0 0 64 64" xmlns="http://www.w3.org/2000/svg">
  <rect width="64" height="64" rx="16" fill="#F7DF1E"/>
  <path d="M23 22h5.5l2.5 15 6.5-.2 1.2-7.5h-4.2l-.25 2.1-1.7.1-.25-1.9h8.9l-.4 2.5c-1.3 3.8-4.4 5.6-8.2 5.6-4.2 0-7.2-2.2-7.6-6.8l1.8-.6c.3 2.4 1.5 3.5 3.8 3.5 1.8 0 3.3-.9 3.9-2.4l.7-4.2c-1.5.2-3.4.2-5.2.2-1.6 0-2.7-.3-3.3-.9-.8-.8-.9-2-.5-3.2Zm13.4.5h4.5c.7 0 1.2.4 1.2 1 0 .6-.5 1-.9 1h-4.8v4.6h4.6c.6 0 1 .3 1 1 0 .6-.4 1-1 1h-4.8V52h-2.8V22.5Z" fill="#000"/>
</svg>